<svg xmlns="http://www.w3.org/2000/svg" viewBox="0 16.700000762939453 283.04998779296875 49.20000076293945" data-asc="1.05" width="283.04998779296875" height="49.20000076293945"><defs/><g><g fill="#6d199a"><g transform="translate(0, 0)"><path d="M14.70 25L13.70 30.85L24.95 30.85L23.60 38.30L12.35 38.30L11.20 44.70L23.95 44.70L22.60 52.50L0 52.50L6.25 17.25L28.80 17.25L27.45 25L14.70 25ZM48.45 38.75L55.90 52.50L44.90 52.50L41.10 45.45L35.85 52.50L25.15 52.50L37 37.95L29.70 24.45L40.70 24.45L44.50 31.50L49.80 24.45L60.55 24.45L48.45 38.75ZM72.90 28.35Q74.40 26.40 76.70 25.25Q79 24.10 81.85 24.10Q86.25 24.10 88.93 27Q91.60 29.90 91.60 34.95Q91.60 36.55 91.30 38.45Q90.50 42.80 88.35 46.08Q86.20 49.35 83.18 51.10Q80.15 52.85 76.80 52.85Q73.95 52.85 72.08 51.70Q70.20 50.55 69.35 48.60L66.30 65.90L56.50 65.90L63.80 24.45L73.60 24.45L72.90 28.35M81.30 38.45Q81.45 37.70 81.45 37Q81.45 34.95 80.28 33.80Q79.10 32.65 77.25 32.65Q75.10 32.65 73.33 34.20Q71.55 35.75 71.10 38.45Q70.95 39.20 70.95 39.85Q70.95 41.95 72.13 43.13Q73.30 44.30 75.15 44.30Q77.35 44.30 79.10 42.73Q80.85 41.15 81.30 38.45ZM110.50 24.10Q116.00 24.10 119.23 27.05Q122.45 30 122.45 35.10Q122.45 36.80 122.20 38.10Q121.90 39.70 121.60 40.40L103.05 40.40Q103.00 40.70 103.00 41.30Q103.00 43.20 103.93 44.10Q104.85 45 106.40 45Q108.85 45 110.30 42.80L120.70 42.80Q119.55 45.70 117.28 47.98Q115.00 50.25 111.93 51.55Q108.85 52.85 105.40 52.85Q99.90 52.85 96.65 49.85Q93.40 46.85 93.40 41.60Q93.40 40.10 93.70 38.45Q94.50 34.05 96.88 30.82Q99.25 27.60 102.78 25.85Q106.30 24.10 110.50 24.10M112.55 36Q112.65 35.30 112.65 35.10Q112.65 33.50 111.65 32.67Q110.65 31.85 109.05 31.85Q107.20 31.85 105.85 32.90Q104.50 33.95 103.85 36L112.55 36ZM147 24.20Q151.10 24.20 153.43 26.57Q155.75 28.95 155.75 33.15Q155.75 34.55 155.45 36.15L152.55 52.50L142.75 52.50L145.40 37.45Q145.55 36.70 145.55 36.10Q145.55 34.30 144.53 33.30Q143.50 32.30 141.65 32.30Q139.55 32.30 138.10 33.60Q136.65 34.90 136.15 37.20L133.45 52.50L123.60 52.50L128.60 24.45L138.40 24.45L137.70 28.45Q139.35 26.55 141.75 25.38Q144.15 24.20 147 24.20ZM170.15 52.85Q166.65 52.85 163.90 51.80Q161.15 50.75 159.60 48.83Q158.05 46.90 158.05 44.40Q158.05 43.95 158.15 43.05L167.60 43.05Q167.55 44.45 168.45 45.20Q169.35 45.95 170.95 45.95Q172.20 45.95 173.03 45.45Q173.85 44.95 173.85 44.15Q173.85 43.20 172.80 42.67Q171.75 42.15 169.30 41.35Q166.45 40.45 164.60 39.60Q162.75 38.75 161.38 37.10Q160 35.45 160 32.85Q160 30.35 161.47 28.35Q162.95 26.35 165.65 25.22Q168.35 24.10 171.90 24.10Q175.70 24.10 178.48 25.38Q181.25 26.65 182.63 28.90Q184 31.15 183.85 33.90L175.05 33.90Q175.10 32.55 174.25 31.77Q173.40 31 171.80 31Q170.65 31 169.90 31.50Q169.15 32 169.15 32.80Q169.15 33.75 170.22 34.30Q171.30 34.85 173.85 35.70Q176.65 36.60 178.53 37.48Q180.40 38.35 181.75 39.92Q183.10 41.50 183.10 43.95Q183.10 48.10 179.50 50.48Q175.90 52.85 170.15 52.85ZM204 24.10Q209.50 24.10 212.73 27.05Q215.95 30 215.95 35.10Q215.95 36.80 215.70 38.10Q215.40 39.70 215.10 40.40L196.55 40.40Q196.50 40.70 196.50 41.30Q196.50 43.20 197.43 44.10Q198.35 45 199.90 45Q202.35 45 203.80 42.80L214.20 42.80Q213.05 45.70 210.78 47.98Q208.50 50.25 205.43 51.55Q202.35 52.85 198.90 52.85Q193.40 52.85 190.15 49.85Q186.90 46.85 186.90 41.60Q186.90 40.10 187.20 38.45Q188 34.05 190.38 30.82Q192.75 27.60 196.28 25.85Q199.80 24.10 204 24.10M206.05 36Q206.15 35.30 206.15 35.10Q206.15 33.50 205.15 32.67Q204.15 31.85 202.55 31.85Q200.70 31.85 199.35 32.90Q198 33.95 197.35 36L206.05 36ZM232.95 17.25L229.40 37.70Q229.25 38.60 229.25 39.40Q229.25 41.40 230.33 42.50Q231.40 43.60 233.65 43.60Q236.35 43.60 238.00 42.05Q239.65 40.50 240.15 37.70L243.75 17.25L253.55 17.25L249.95 37.70Q249.10 42.70 246.50 46.10Q243.90 49.50 240.15 51.17Q236.40 52.85 231.95 52.85Q226.20 52.85 222.73 49.85Q219.25 46.85 219.25 41.25Q219.25 39.45 219.60 37.70L223.20 17.25L232.95 17.25ZM267.30 52.85Q261.20 52.85 257.48 50.33Q253.75 47.80 253.75 42.95Q253.75 42.55 253.85 41.55L264.20 41.55Q264.05 43.25 264.90 44.20Q265.75 45.15 267.50 45.15Q268.95 45.15 269.83 44.50Q270.70 43.85 270.70 42.65Q270.70 41.25 269.43 40.35Q268.15 39.45 265.30 38.25Q262.45 37.05 260.60 35.97Q258.75 34.90 257.40 33.02Q256.05 31.15 256.05 28.35Q256.05 24.70 257.85 22.07Q259.65 19.45 262.88 18.07Q266.10 16.70 270.25 16.70Q274 16.70 276.90 17.88Q279.80 19.05 281.43 21.25Q283.05 23.45 283.05 26.45Q283.05 27.25 283 27.65L272.45 27.65Q272.50 27.40 272.50 26.95Q272.50 25.75 271.75 25.07Q271 24.40 269.70 24.40Q268.35 24.40 267.53 25.07Q266.70 25.75 266.70 26.95Q266.70 28.25 267.98 29.17Q269.25 30.10 271.95 31.35Q274.85 32.70 276.73 33.88Q278.60 35.05 279.95 37Q281.30 38.95 281.30 41.80Q281.30 44.95 279.60 47.48Q277.90 50 274.75 51.42Q271.60 52.85 267.30 52.85Z"/></g></g></g></svg>